<svg width="76" height="76" viewBox="0 0 76 76" fill="currentColor" xmlns="http://www.w3.org/2000/svg">
  <path d="M63.5873 5H69V10.2993H63.5873V5Z" fill="currentColor"/>
  <path d="M22.746 15.1168H17.3333V20.4161H22.746V15.1168Z" fill="currentColor"/>
  <path d="M63.5873 15.1168H69V20.4161H63.5873V15.1168Z" fill="currentColor"/>
  <path d="M63.5873 25.2336H69V50.7664H63.5873V25.2336Z" fill="currentColor"/>
  <path fill-rule="evenodd" clip-rule="evenodd" d="M53.254 55.5839H69V71H7V55.5839H11.9206V50.7664H7V35.3504H17.8254V40.6496H12.4127V45.4672H22.746V35.3504H28.1587V50.7664H17.3333V55.5839H22.746V65.7007H42.9206V60.8832H27.6667V55.5839H48.3333V65.7007H53.254V55.5839ZM58.6667 60.8832H63.5873V65.7007H58.6667V60.8832ZM17.3333 60.8832H12.4127V65.7007H17.3333V60.8832Z" fill="currentColor"/>
  <path d="M28.1587 25.2336H12.4127V10.2993H28.1587V5H7V30.5328H28.1587V25.2336Z" fill="currentColor"/>
  <path d="M33.0794 5H59.1587V30.5328H53.746V10.2993H38.4921V15.1168H48.8254V20.4161H38.4921V25.2336H48.8254V30.5328H38.4921V45.4672H53.746V40.6496H43.4127V35.3504H59.1587V50.7664H33.0794V5Z" fill="currentColor"/>
</svg>
