<svg width="480" height="320" viewBox="0 0 480 320" fill="none" xmlns="http://www.w3.org/2000/svg">
<rect width="480" height="320" fill="#F0F3F7"/>
<path fill-rule="evenodd" clip-rule="evenodd" d="M181.034 101.034C182.412 99.6554 184.647 99.6554 186.025 101.034L197.267 112.276C197.482 112.412 197.686 112.575 197.873 112.763L298.966 213.975C300.345 215.353 300.345 217.588 298.966 218.966C297.588 220.345 295.353 220.345 293.975 218.966L284.486 209.477C280.695 212.222 276.111 213.726 271.373 213.726C271.372 213.726 271.373 213.726 271.373 213.726H208.627C202.699 213.726 197.014 211.37 192.822 207.178C188.63 202.986 186.275 197.301 186.275 191.373V128.627C186.275 123.73 187.854 119.197 190.523 115.515L181.034 106.025C179.655 104.647 179.655 102.412 181.034 101.034ZM195.607 120.599C194.165 122.934 193.333 125.683 193.333 128.627V170.303L212.406 151.23L212.455 151.183C215.087 148.649 218.101 146.956 221.308 146.299L195.607 120.599ZM231.255 156.247C228.881 153.971 226.481 153.053 224.314 153.053C222.146 153.053 219.746 153.971 217.373 156.247L193.333 180.286V191.373C193.333 195.429 194.945 199.319 197.813 202.187C200.681 205.055 204.571 206.667 208.627 206.667H271.373C274.23 206.667 277.005 205.868 279.399 204.393L262.637 187.628C262.625 187.617 262.614 187.606 262.602 187.594L231.255 156.247ZM211.373 109.804C211.373 107.855 212.953 106.275 214.902 106.275H271.373C277.301 106.275 282.986 108.63 287.178 112.822C291.37 117.014 293.726 122.699 293.726 128.627V185.098C293.726 187.047 292.145 188.627 290.196 188.627C288.247 188.627 286.667 187.047 286.667 185.098V180.285L275.177 168.795C272.53 166.261 269.854 165.4 267.465 165.644C265.526 165.842 263.793 164.431 263.595 162.492C263.397 160.553 264.808 158.82 266.747 158.622C271.592 158.126 276.247 160.032 280.093 163.73L280.143 163.778L286.667 170.302V128.627C286.667 124.571 285.055 120.681 282.187 117.813C279.319 114.945 275.429 113.333 271.373 113.333H214.902C212.953 113.333 211.373 111.753 211.373 109.804ZM255.294 134.902C255.294 132.953 256.874 131.373 258.824 131.373H258.886C260.836 131.373 262.416 132.953 262.416 134.902C262.416 136.851 260.836 138.431 258.886 138.431H258.824C256.874 138.431 255.294 136.851 255.294 134.902Z" fill="#C4CDD5"/>
</svg>
